<svg xmlns="http://www.w3.org/2000/svg" viewBox="0 0 724.56 213" fill="white"
     class="header-module_brand_logo__aNCVx">
  <path d="m54,51.5v51.5C25.2,103,1.5,79.75,1.5,51.5S25.2,0,54,0s52.5,23.25,52.5,51.5h-52.5Z"></path>
  <path d="m150,161.5v51.5c-28.8,0-52.5-23.25-52.5-51.5s23.7-51.5,52.5-51.5,52.5,23.25,52.5,51.5h-52.5Z"></path>
  <polygon points="150 101.5 204 1.5 96 1.5 150 101.5"></polygon>
  <polygon points="54 211.5 108 111.5 0 111.5 54 211.5"></polygon>
  <path
    d="m294.35,101.51h-37.86V1.51h37.86c30.14,0,48.57,18.71,48.57,50s-18.43,50-48.57,50Zm-1.43-15.71c21.57,0,31.43-12,31.43-34.29s-9.86-34.29-31.43-34.29h-17.86v68.57h17.86Z"></path>
  <path
    d="m385.78,103.65c-23.57,0-38.57-17-38.57-39.29s15.29-39.29,38.14-39.29c19,0,30.29,10,35,24.86,1.71,5.57,2.43,11.71,2.43,18v2.86h-57.14c.43,9.29,7.43,19.29,20.14,19.29,9.71,0,14.71-5.43,16.43-10h19.14c-4.14,13-16.14,23.57-35.57,23.57Zm-20.14-46.43h38.71c-.43-9.86-7.14-18.57-19-18.57s-18.57,8.71-19.71,18.57Z"></path>
  <path
    d="m438.93,27.22l10.29,28.57c3.29,8.57,5.86,18.43,8,26.43h.57c2.14-8,4.71-17.86,8-26.43l10.29-28.57h18.86l-28.57,74.28h-17.71l-28.57-74.28h18.86Z"></path>
  <path
    d="m615.42,103.65c-23.57,0-38.57-17-38.57-39.29s15.29-39.29,38.14-39.29c19,0,30.29,10,35,24.86,1.71,5.57,2.43,11.71,2.43,18v2.86h-57.14c.43,9.29,7.43,19.29,20.14,19.29,9.71,0,14.71-5.43,16.43-10h19.14c-4.14,13-16.14,23.57-35.57,23.57Zm-20.14-46.43h38.71c-.43-9.86-7.14-18.57-19-18.57s-18.57,8.71-19.71,18.57Z"></path>
  <path
    d="m668.56,27.22l10.29,28.57c3.29,8.57,5.86,18.43,8,26.43h.57c2.14-8,4.71-17.86,8-26.43l10.29-28.57h18.86l-28.57,74.28h-17.71l-28.57-74.28h18.86Z"></path>
  <path
    d="m547.59,61.36h-.03c17.73-1.44,29.11-13.14,29.11-29.85,0-17.86-13-30-32.86-30h-42.75v100h18.57v-40h6.84l30.6,40h21.94l-31.44-40.15Zm-27.94-15.56v-28.57h24.17c8.57,0,14.29,5.71,14.29,14.29s-5.71,14.29-14.29,14.29h-24.17Z"></path>
</svg>
